<svg width="300" height="40" viewBox="0 0 300 40" fill="none" xmlns="http://www.w3.org/2000/svg">
<path d="M35.2703 13.5852H45V7.90469H35.2703V13.5852ZM35.2703 0V5.67734H45V0H35.2703ZM35.2703 21.4891H45V15.8109H35.2703V21.4891ZM0 29.3961H9.72969V23.7188H0V29.3961ZM11.7555 29.3961H21.4844V23.7188H11.7555V29.3961ZM23.5148 29.3961H33.2445V23.7188H23.5156L23.5148 29.3961ZM35.2703 29.3961H45V23.7188H35.2703V29.3961ZM23.5156 21.4891H33.2445V15.8109H23.5156V21.4891ZM11.7562 21.4891H21.4844V15.8109H11.7555L11.7562 21.4891ZM11.7562 13.5852H21.4844V7.90469H11.7555L11.7562 13.5852Z" fill="#E1FF67"/>
<path d="M79.44 14.3267C79.8817 14.3267 80.24 17.8367 80.24 22.1667L80.2383 22.7517C80.2067 26.8083 79.8617 30.0067 79.44 30.0067C79.0133 30.0067 78.665 26.7317 78.64 22.6067V22.02C78.6483 17.7583 79.0033 14.3267 79.44 14.3267ZM76.6667 15.9267C77.0983 15.9267 77.45 18.9267 77.4667 22.6833V23.25C77.45 27.0067 77.0983 30.0067 76.6667 30.0067C76.2417 30.0067 75.8933 27.0817 75.8667 23.39V22.8233L75.87 22.2567C75.9117 18.7017 76.2533 15.9267 76.6667 15.9267ZM73.8933 15.9267C74.3183 15.9267 74.6667 18.8517 74.6933 22.5433V23.11L74.69 23.6767C74.6483 27.2317 74.3067 30.0067 73.8933 30.0067C73.4617 30.0067 73.11 27.0067 73.0933 23.25V22.6833C73.11 18.9267 73.4617 15.9267 73.8933 15.9267ZM71.12 16.8867C71.5617 16.8867 71.92 19.8233 71.92 23.4467L71.9167 24.005C71.8833 27.3667 71.5383 30.0067 71.12 30.0067C70.6833 30.0067 70.33 27.145 70.32 23.5867V23.3067C70.33 19.7483 70.6833 16.8867 71.12 16.8867ZM68.3467 19.7667C68.7883 19.7667 69.1467 22.0583 69.1467 24.8867V25.15C69.125 27.855 68.775 30.0067 68.3467 30.0067C67.905 30.0067 67.5467 27.715 67.5467 24.8867V24.6233C67.5683 21.9183 67.9183 19.7667 68.3467 19.7667ZM86.32 11.7667C90.62 11.7667 94.1867 14.91 94.85 19.025C95.6157 18.8053 96.4196 18.7514 97.2078 18.8671C97.996 18.9828 98.7504 19.2653 99.4207 19.6958C100.091 20.1263 100.662 20.6948 101.095 21.3635C101.528 22.0321 101.813 22.7855 101.932 23.5732C102.051 24.361 102 25.165 101.783 25.9316C101.567 26.6982 101.189 27.4097 100.675 28.0186C100.161 28.6275 99.5237 29.1199 98.8046 29.4627C98.0855 29.8055 97.3015 29.991 96.505 30.0067H82.8C82.4605 30.0067 82.1349 29.8718 81.8949 29.6318C81.6549 29.3917 81.52 29.0662 81.52 28.7267V13.2217C82.9399 12.2705 84.611 11.764 86.32 11.7667ZM65.5733 19.4467C66.015 19.4467 66.3733 21.6683 66.3733 24.4067V24.6667C66.35 27.2833 66.0017 29.3667 65.5733 29.3667C65.14 29.3667 64.785 27.2167 64.7733 24.5367V24.4067C64.7733 21.6683 65.1317 19.4467 65.5733 19.4467ZM62.8 21.0467C63.2417 21.0467 63.6 22.6233 63.6 24.5667V24.785C63.5733 26.6267 63.225 28.0867 62.8 28.0867C62.3583 28.0867 62 26.51 62 24.5667V24.3483C62.0267 22.5067 62.375 21.0467 62.8 21.0467Z" fill="#E1FF67"/>
<path d="M148.833 18.1666C143.5 15 134.583 14.6666 129.5 16.25C128.667 16.5 127.833 16 127.583 15.25C127.333 14.4166 127.833 13.5833 128.583 13.3333C134.5 11.5833 144.25 11.9166 150.417 15.5833C151.167 16 151.417 17 151 17.75C150.583 18.3333 149.583 18.5833 148.833 18.1666ZM148.667 22.8333C148.25 23.4166 147.5 23.6666 146.917 23.25C142.417 20.5 135.583 19.6666 130.333 21.3333C129.667 21.5 128.917 21.1666 128.75 20.5C128.583 19.8333 128.917 19.0833 129.583 18.9166C135.667 17.0833 143.167 18 148.333 21.1666C148.833 21.4166 149.083 22.25 148.667 22.8333ZM146.667 27.4166C146.333 27.9166 145.75 28.0833 145.25 27.75C141.333 25.3333 136.417 24.8333 130.583 26.1666C130 26.3333 129.5 25.9166 129.333 25.4166C129.167 24.8333 129.583 24.3333 130.083 24.1666C136.417 22.75 141.917 23.3333 146.25 26C146.833 26.25 146.917 26.9166 146.667 27.4166ZM139 3.33331C136.811 3.33331 134.644 3.76441 132.622 4.60199C130.6 5.43957 128.763 6.66722 127.215 8.21487C124.089 11.3405 122.333 15.5797 122.333 20C122.333 24.4203 124.089 28.6595 127.215 31.7851C128.763 33.3327 130.6 34.5604 132.622 35.398C134.644 36.2355 136.811 36.6666 139 36.6666C143.42 36.6666 147.66 34.9107 150.785 31.7851C153.911 28.6595 155.667 24.4203 155.667 20C155.667 17.8113 155.236 15.644 154.398 13.6219C153.56 11.5998 152.333 9.76251 150.785 8.21487C149.237 6.66722 147.4 5.43957 145.378 4.60199C143.356 3.76441 141.189 3.33331 139 3.33331Z" fill="#E1FF67"/>
<path d="M194.417 33.8C192.783 35.3833 191 35.1333 189.283 34.3833C187.467 33.6167 185.8 33.5833 183.883 34.3833C181.483 35.4167 180.217 35.1167 178.783 33.8C170.65 25.4167 171.85 12.65 181.083 12.1833C183.333 12.3 184.9 13.4167 186.217 13.5167C188.183 13.1167 190.067 11.9667 192.167 12.1167C194.683 12.3167 196.583 13.3167 197.833 15.1167C192.633 18.2333 193.867 25.0833 198.633 27C197.683 29.5 196.45 31.9833 194.4 33.8167L194.417 33.8ZM186.05 12.0833C185.8 8.36667 188.817 5.3 192.283 5C192.767 9.3 188.383 12.5 186.05 12.0833Z" fill="#E1FF67"/>
<path d="M229.667 25L238.317 20L229.667 15V25ZM248.933 11.95C249.15 12.7333 249.3 13.7833 249.4 15.1166C249.517 16.45 249.567 17.6 249.567 18.6L249.667 20C249.667 23.65 249.4 26.3333 248.933 28.05C248.517 29.55 247.55 30.5166 246.05 30.9333C245.267 31.15 243.833 31.3 241.633 31.4C239.467 31.5166 237.483 31.5666 235.65 31.5666L233 31.6666C226.017 31.6666 221.667 31.4 219.95 30.9333C218.45 30.5166 217.483 29.55 217.067 28.05C216.85 27.2666 216.7 26.2166 216.6 24.8833C216.483 23.55 216.433 22.4 216.433 21.4L216.333 20C216.333 16.35 216.6 13.6666 217.067 11.95C217.483 10.45 218.45 9.48331 219.95 9.06665C220.733 8.84998 222.167 8.69998 224.367 8.59998C226.533 8.48331 228.517 8.43331 230.35 8.43331L233 8.33331C239.983 8.33331 244.333 8.59998 246.05 9.06665C247.55 9.48331 248.517 10.45 248.933 11.95Z" fill="#E1FF67"/>
<path d="M296.662 30.3833C296.662 31.595 295.987 33.9283 294.47 35.21C294.167 35.4433 293.863 35.3117 293.997 34.9717C294.438 33.8917 295.448 31.3933 294.975 30.8183C294.64 30.3817 293.257 30.415 292.077 30.515C291.538 30.5833 291.065 30.615 290.698 30.69C290.358 30.7167 290.29 30.4183 290.63 30.185C291.073 29.8724 291.562 29.6317 292.08 29.4717C293.997 28.8983 296.212 29.2433 296.53 29.61C296.59 29.68 296.662 29.8783 296.662 30.3833ZM293.458 32.5383C293.019 32.8744 292.557 33.1807 292.077 33.455C288.54 35.58 283.958 36.6933 279.98 36.6933C273.575 36.6933 267.847 34.3317 263.5 30.38C263.127 30.0767 263.435 29.6367 263.872 29.875C268.555 32.6083 274.352 34.2617 280.352 34.2617C284.128 34.2617 288.198 33.555 292.077 32.035C292.348 31.9333 292.652 31.795 292.917 31.6983C293.528 31.4233 294.067 32.1017 293.458 32.5383ZM283.175 14.155C283.175 12.42 283.245 11.3983 282.67 10.5217C282.16 9.8 281.282 9.36667 280.055 9.435C278.725 9.50833 277.297 10.38 276.933 11.9783C276.862 12.345 276.648 12.705 276.205 12.7833L272.147 12.2667C271.857 12.2 271.415 11.9783 271.56 11.3983C272.432 6.81333 276.35 5.215 280.057 5H280.927C282.96 5 285.573 5.58167 287.245 7.10667C289.273 9 289.057 11.5433 289.057 14.3067V20.8517C289.057 22.815 289.853 23.685 290.653 24.7083C290.87 25.0733 290.945 25.5033 290.58 25.8C289.53 26.7361 288.465 27.6551 287.385 28.5567C287.093 28.7783 286.57 28.8017 286.368 28.6317C285.085 27.5567 284.772 26.96 283.977 25.8683C282.593 27.32 281.432 28.1217 280.05 28.5567C279.078 28.8032 278.079 28.9242 277.077 28.9167C273.593 28.9167 270.835 26.745 270.835 22.45C270.835 19.035 272.652 16.7133 275.335 15.615C278.018 14.515 281.918 14.165 283.175 14.1583M282.38 22.8117C283.247 21.3583 283.175 20.1683 283.175 17.5033C282.088 17.5033 280.998 17.5783 280.057 17.8C278.315 18.305 276.932 19.4 276.932 21.725C276.932 23.5417 277.878 24.7783 279.475 24.7783C279.695 24.7783 279.888 24.7517 280.055 24.7033C281.172 24.3933 281.868 23.8333 282.38 22.8117Z" fill="#E1FF67"/>
</svg>
